<svg width="40" height="40" viewBox="0 0 40 40" fill="none" xmlns="http://www.w3.org/2000/svg">
<rect width="40" height="40" rx="20" fill="#2DBE64"/>
<g clip-path="url(#clip0_1621_713)">
<path d="M14.6667 22.6666V14.6666H13.3333V13.3333H15.3333C15.5101 13.3333 15.6797 13.4036 15.8047 13.5286C15.9298 13.6536 16 13.8232 16 14V22H24.292L25.6253 16.6666H17.3333V15.3333H26.48C26.5813 15.3333 26.6813 15.3564 26.7724 15.4009C26.8635 15.4453 26.9432 15.5099 27.0056 15.5898C27.0679 15.6697 27.1112 15.7628 27.1322 15.8619C27.1532 15.9611 27.1513 16.0637 27.1267 16.162L25.46 22.8286C25.4239 22.9728 25.3406 23.1008 25.2235 23.1922C25.1063 23.2836 24.9619 23.3333 24.8133 23.3333H15.3333C15.1565 23.3333 14.9869 23.2631 14.8619 23.1381C14.7369 23.013 14.6667 22.8435 14.6667 22.6666ZM16 27.3333C15.6464 27.3333 15.3072 27.1928 15.0572 26.9428C14.8071 26.6927 14.6667 26.3536 14.6667 26C14.6667 25.6464 14.8071 25.3072 15.0572 25.0572C15.3072 24.8071 15.6464 24.6666 16 24.6666C16.3536 24.6666 16.6928 24.8071 16.9428 25.0572C17.1929 25.3072 17.3333 25.6464 17.3333 26C17.3333 26.3536 17.1929 26.6927 16.9428 26.9428C16.6928 27.1928 16.3536 27.3333 16 27.3333ZM24 27.3333C23.6464 27.3333 23.3072 27.1928 23.0572 26.9428C22.8071 26.6927 22.6667 26.3536 22.6667 26C22.6667 25.6464 22.8071 25.3072 23.0572 25.0572C23.3072 24.8071 23.6464 24.6666 24 24.6666C24.3536 24.6666 24.6928 24.8071 24.9428 25.0572C25.1929 25.3072 25.3333 25.6464 25.3333 26C25.3333 26.3536 25.1929 26.6927 24.9428 26.9428C24.6928 27.1928 24.3536 27.3333 24 27.3333Z" fill="white"/>
</g>
<defs>
<clipPath id="clip0_1621_713">
<rect width="16" height="16" fill="white" transform="translate(12 12)"/>
</clipPath>
</defs>
</svg>
