<svg width="28" height="28" viewBox="0 0 28 28" fill="none" xmlns="http://www.w3.org/2000/svg">
<path d="M14 27.3334C6.636 27.3334 0.666664 21.3641 0.666664 14.0001C0.666664 6.63608 6.636 0.666748 14 0.666748C21.364 0.666748 27.3333 6.63608 27.3333 14.0001C27.3333 21.3641 21.364 27.3334 14 27.3334ZM14 24.6667C16.829 24.6667 19.5421 23.5429 21.5425 21.5426C23.5429 19.5422 24.6667 16.8291 24.6667 14.0001C24.6667 11.1711 23.5429 8.458 21.5425 6.45761C19.5421 4.45722 16.829 3.33341 14 3.33341C11.171 3.33341 8.45791 4.45722 6.45752 6.45761C4.45714 8.458 3.33333 11.1711 3.33333 14.0001C3.33333 16.8291 4.45714 19.5422 6.45752 21.5426C8.45791 23.5429 11.171 24.6667 14 24.6667ZM12.1627 9.22008L18.668 13.5561C18.7412 13.6048 18.8011 13.6708 18.8426 13.7482C18.8841 13.8257 18.9058 13.9122 18.9058 14.0001C18.9058 14.088 18.8841 14.1745 18.8426 14.2519C18.8011 14.3294 18.7412 14.3954 18.668 14.4441L12.1613 18.7801C12.0811 18.8333 11.988 18.8637 11.8918 18.8683C11.7957 18.8728 11.7001 18.8513 11.6152 18.8059C11.5303 18.7605 11.4593 18.693 11.4097 18.6105C11.36 18.528 11.3337 18.4337 11.3333 18.3374V9.66275C11.3335 9.56628 11.3598 9.47167 11.4095 9.38899C11.4592 9.30631 11.5304 9.23865 11.6155 9.19323C11.7006 9.14781 11.7965 9.12631 11.8928 9.13104C11.9892 9.13577 12.0824 9.16654 12.1627 9.22008Z" fill="white"/>
</svg>
